<svg xmlns="http://www.w3.org/2000/svg" width="1200" height="400" viewBox="0 0 1200 400" role="img" aria-label="for (;;) { code(); coffee(); }"><title>for (;;) { code(); coffee(); }</title><style>
  .tw { animation: tw 2.4s ease-in-out infinite; transform-box: fill-box; transform-origin: center; }
  @keyframes tw { 0%,100% { opacity: .35; transform: scale(.8); } 50% { opacity: 1; transform: scale(1.15); } }
  .steam path { animation: steam 2.2s ease-in-out infinite; opacity: 0; }
  @keyframes steam { 0% { opacity: 0; transform: translateY(6px); } 40% { opacity: .9; } 100% { opacity: 0; transform: translateY(-8px); } }
  .zz { animation: zz 2.4s ease-in-out infinite; opacity: 0; }
  @keyframes zz { 0% { opacity: 0; transform: translate(0,4px); } 35% { opacity: 1; } 100% { opacity: 0; transform: translate(6px,-10px); } }
</style><defs><clipPath id="hd"><ellipse cx="0" cy="0" rx="40" ry="34"/></clipPath><clipPath id="bd"><path d="M-30,18 C-36,40 -32,66 0,66 C32,66 36,40 30,18 Z"/></clipPath></defs><defs><linearGradient id="g" x1="0" y1="0" x2="0" y2="1"><stop offset="0" stop-color="#0b0f14"/><stop offset="1" stop-color="#0d1117"/></linearGradient><pattern id="grid" width="28" height="28" patternUnits="userSpaceOnUse"><path d="M28 0H0V28" fill="none" stroke="#1b2129" stroke-width="1"/></pattern></defs><rect width="1200" height="400" fill="url(#g)"/><rect width="1200" height="400" fill="url(#grid)" opacity=".55"/><rect x="1.5" y="1.5" width="1197" height="397" rx="16" fill="none" stroke="#30363d" stroke-width="3"/><text x="70" y="118" font-family="'SFMono-Regular', Consolas, 'Liberation Mono', Menlo, monospace" font-size="34" xml:space="preserve"><tspan fill="#ff7b72">for</tspan> <tspan fill="#e6edf3">(;;)</tspan> <tspan fill="#e6edf3">{</tspan></text><text x="70" y="166" font-family="'SFMono-Regular', Consolas, 'Liberation Mono', Menlo, monospace" font-size="34" xml:space="preserve">  <tspan fill="#d2a8ff">code</tspan><tspan fill="#e6edf3">();</tspan></text><text x="70" y="214" font-family="'SFMono-Regular', Consolas, 'Liberation Mono', Menlo, monospace" font-size="34" xml:space="preserve">  <tspan fill="#d2a8ff">coffee</tspan><tspan fill="#e6edf3">();</tspan></text><text x="70" y="262" font-family="'SFMono-Regular', Consolas, 'Liberation Mono', Menlo, monospace" font-size="34" xml:space="preserve"><tspan fill="#e6edf3">}</tspan></text><rect x="70" y="280" width="16" height="36" fill="#3fb950" class="tw"/><path d="M560,61 Q561.62,68.38 569,70 Q561.62,71.62 560,79 Q558.38,71.62 551,70 Q558.38,68.38 560,61 Z" fill="#7ee787" class="tw" style="animation-delay:0.0s"/><path d="M640,124 Q641.08,128.92 646,130 Q641.08,131.08 640,136 Q638.92,131.08 634,130 Q638.92,128.92 640,124 Z" fill="#7ee787" class="tw" style="animation-delay:0.8s"/><path d="M1010,52 Q1011.44,58.56 1018,60 Q1011.44,61.44 1010,68 Q1008.56,61.44 1002,60 Q1008.56,58.56 1010,52 Z" fill="#7ee787" class="tw" style="animation-delay:0.4s"/><path d="M1110,124 Q1111.08,128.92 1116,130 Q1111.08,131.08 1110,136 Q1108.92,131.08 1104,130 Q1108.92,128.92 1110,124 Z" fill="#7ee787" class="tw" style="animation-delay:1.2s"/><path d="M500,294 Q501.08,298.92 506,300 Q501.08,301.08 500,306 Q498.92,301.08 494,300 Q498.92,298.92 500,294 Z" fill="#7ee787" class="tw" style="animation-delay:0.6s"/><path d="M1060,293 Q1061.26,298.74 1067,300 Q1061.26,301.26 1060,307 Q1058.74,301.26 1053,300 Q1058.74,298.74 1060,293 Z" fill="#7ee787" class="tw" style="animation-delay:1.0s"/><path d="M594,40 h12 M600,34 v12" stroke="#3fb950" stroke-width="2.7" stroke-linecap="round" class="tw" style="animation-delay:0.3s"/><path d="M1113,80 h14 M1120,73 v14" stroke="#3fb950" stroke-width="3.1" stroke-linecap="round" class="tw" style="animation-delay:0.9s"/><path d="M515,200 h10 M520,195 v10" stroke="#3fb950" stroke-width="2.2" stroke-linecap="round" class="tw" style="animation-delay:1.4s"/><rect x="440" y="318" width="720" height="8" rx="4" fill="#1b2129"/><g transform="translate(790 178) scale(1.55)"><path d="M-30,18 C-36,40 -32,66 0,66 C32,66 36,40 30,18 Z" fill="#ffffff" stroke="#111318" stroke-width="3.5" stroke-linejoin="round"/><g clip-path="url(#bd)"><path d="M18,40 C28,36 36,46 30,56 C24,62 14,56 16,48 Z" fill="#343a43"/><circle cx="-22" cy="52" r="4" fill="#9aa3ad"/></g><path d="M-31,30 C-14,42 14,42 31,30" fill="none" stroke="#111318" stroke-width="12" stroke-linecap="round"/><path d="M-31,30 C-14,42 14,42 31,30" fill="none" stroke="#7d8590" stroke-width="7" stroke-linecap="round"/><path d="M-31,30 C-14,42 14,42 31,30" fill="none" stroke="#c9d1d9" stroke-width="1.5" stroke-dasharray="4 4"/><rect x="-6" y="32" width="12" height="9" rx="2" fill="#444c56" stroke="#111318" stroke-width="2"/><path d="M-24,36 C-46,40 -62,50 -56,62" fill="none" stroke="#111318" stroke-width="12" stroke-linecap="round"/><path d="M-24,36 C-46,40 -62,50 -56,62" fill="none" stroke="#ffffff" stroke-width="6" stroke-linecap="round"/><path d="M24,36 C42,42 50,50 44,62" fill="none" stroke="#111318" stroke-width="12" stroke-linecap="round"/><path d="M24,36 C42,42 50,50 44,62" fill="none" stroke="#ffffff" stroke-width="6" stroke-linecap="round"/><g transform="rotate(0)"><g stroke="#111318" stroke-width="3.5" stroke-linejoin="round"><path d="M-18,-30 C-34,-46 -58,-36 -60,-14 C-62,6 -54,24 -42,24 C-32,24 -30,8 -30,-4 Z" fill="#ffffff"/><path d="M18,-30 C34,-46 58,-36 60,-14 C62,6 54,24 42,24 C32,24 30,8 30,-4 Z" fill="#343a43"/></g><path d="M-30,-26 C-40,-34 -52,-26 -52,-12 C-52,2 -47,14 -42,14 C-37,14 -36,4 -36,-4 Z" fill="#f3b8c6"/><path d="M30,-26 C40,-34 52,-26 52,-12 C52,2 47,14 42,14 C37,14 36,4 36,-4 Z" fill="#f3b8c6"/><ellipse cx="0" cy="0" rx="40" ry="34" fill="#ffffff"/><g clip-path="url(#hd)"><path d="M-20,-36 C-6,-46 16,-44 26,-30 C18,-20 -2,-16 -18,-22 Z" fill="#9aa3ad"/><circle cx="-6" cy="-30" r="2.5" fill="#343a43"/><circle cx="8" cy="-34" r="2" fill="#343a43"/><circle cx="16" cy="-26" r="2.2" fill="#343a43"/><path d="M6,-18 C22,-28 42,-14 40,6 C36,18 18,20 8,8 Z" fill="#343a43"/><circle cx="-30" cy="-6" r="3" fill="#9aa3ad"/></g><ellipse cx="0" cy="0" rx="40" ry="34" fill="none" stroke="#111318" stroke-width="3.5"/><ellipse cx="-16" cy="-3" rx="8" ry="8.5" fill="#ffffff" stroke="#111318" stroke-width="2"/><circle cx="-15" cy="-2" r="5.5" fill="#7cc4ee"/><circle cx="-15" cy="-2" r="2.8" fill="#111318"/><circle cx="-17" cy="-4.5" r="1.6" fill="#ffffff"/><ellipse cx="16" cy="-3" rx="8" ry="8.5" fill="#ffffff" stroke="#111318" stroke-width="2"/><circle cx="17" cy="-2" r="5.5" fill="#6b4a2b"/><circle cx="17" cy="-2" r="2.8" fill="#111318"/><circle cx="15" cy="-4.5" r="1.6" fill="#ffffff"/><g stroke="#111318" stroke-width="3" fill="#9fd3ff" fill-opacity=".14"><rect x="-30" y="-15" width="27" height="23" rx="6"/><rect x="3" y="-15" width="27" height="23" rx="6"/><path d="M-3,-5 h6 M-30,-7 l-7,-3 M30,-7 l7,-3" fill="none" stroke-linecap="round"/></g><ellipse cx="0" cy="18" rx="21" ry="15" fill="#f3f4f6" stroke="#cfd6de" stroke-width="2"/><ellipse cx="-33" cy="8" rx="5" ry="3" fill="#f4a6b7" opacity=".8"/><ellipse cx="33" cy="8" rx="5" ry="3" fill="#f4a6b7" opacity=".8"/><path d="M-10,10 h20 a5,5 0 0 1 4,7 l-11,9 a4,4 0 0 1 -6,0 l-11,-9 a5,5 0 0 1 4,-7 Z" fill="#e7a2b6" stroke="#111318" stroke-width="2.5" stroke-linejoin="round"/><circle cx="-4" cy="14" r="1.3" fill="#343a43"/><circle cx="5" cy="13" r="1.1" fill="#343a43"/><path d="M0,26 v3 M-7,30 q7,6 14,0" fill="none" stroke="#111318" stroke-width="2.5" stroke-linecap="round"/></g><rect x="-92" y="60" width="160" height="40" rx="7" fill="#21262d" stroke="#111318" stroke-width="3.5"/><rect x="-84" y="67" width="11" height="8" rx="2" fill="#3a4150"/><rect x="-70" y="67" width="11" height="8" rx="2" fill="#3a4150"/><rect x="-56" y="67" width="11" height="8" rx="2" fill="#3a4150"/><rect x="-42" y="67" width="11" height="8" rx="2" fill="#3a4150"/><rect x="-28" y="67" width="11" height="8" rx="2" fill="#3a4150"/><rect x="-14" y="67" width="11" height="8" rx="2" fill="#3a4150"/><rect x="0" y="67" width="11" height="8" rx="2" fill="#3a4150"/><rect x="14" y="67" width="11" height="8" rx="2" fill="#3a4150"/><rect x="28" y="67" width="11" height="8" rx="2" fill="#3a4150"/><rect x="42" y="67" width="11" height="8" rx="2" fill="#3a4150"/><rect x="-80" y="78" width="11" height="8" rx="2" fill="#3a4150"/><rect x="-66" y="78" width="11" height="8" rx="2" fill="#3a4150"/><rect x="-52" y="78" width="11" height="8" rx="2" fill="#3a4150"/><rect x="-38" y="78" width="11" height="8" rx="2" fill="#3a4150"/><rect x="-24" y="78" width="11" height="8" rx="2" fill="#3a4150"/><rect x="-10" y="78" width="11" height="8" rx="2" fill="#3a4150"/><rect x="4" y="78" width="11" height="8" rx="2" fill="#3a4150"/><rect x="18" y="78" width="11" height="8" rx="2" fill="#3a4150"/><rect x="32" y="78" width="11" height="8" rx="2" fill="#3a4150"/><rect x="46" y="78" width="11" height="8" rx="2" fill="#3a4150"/><rect x="-76" y="89" width="11" height="8" rx="2" fill="#3a4150"/><rect x="-62" y="89" width="11" height="8" rx="2" fill="#3a4150"/><rect x="-48" y="89" width="11" height="8" rx="2" fill="#3a4150"/><rect x="-34" y="89" width="11" height="8" rx="2" fill="#3a4150"/><rect x="-20" y="89" width="11" height="8" rx="2" fill="#3a4150"/><rect x="-6" y="89" width="11" height="8" rx="2" fill="#3a4150"/><rect x="8" y="89" width="11" height="8" rx="2" fill="#3a4150"/><rect x="22" y="89" width="11" height="8" rx="2" fill="#3a4150"/><rect x="36" y="89" width="11" height="8" rx="2" fill="#3a4150"/><ellipse cx="-54" cy="66" rx="10" ry="6.5" fill="#ffffff" stroke="#111318" stroke-width="3"/><ellipse cx="42" cy="66" rx="10" ry="6.5" fill="#ffffff" stroke="#111318" stroke-width="3"/><path d="M-78,56 l-7,-5 M-74,46 l-8,-3 M64,54 l7,-5 M60,45 l8,-3" fill="none" stroke="#8b949e" stroke-width="2.5" stroke-linecap="round"/><g transform="translate(84 62) scale(1.0)"><path d="M38,10 h8 a9,9 0 0 1 0,18 h-8" fill="none" stroke="#111318" stroke-width="11" stroke-linecap="round"/><path d="M38,10 h8 a9,9 0 0 1 0,18 h-8" fill="none" stroke="#ffffff" stroke-width="4.5"/><rect x="0" y="0" width="40" height="40" rx="6" fill="#ffffff" stroke="#111318" stroke-width="3.5"/><text x="20" y="26" font-family="'SFMono-Regular', Consolas, 'Liberation Mono', Menlo, monospace" font-size="14" font-weight="700" fill="#111318" text-anchor="middle">&lt;/&gt;</text><g fill="none" stroke="#8b949e" stroke-width="2.5" stroke-linecap="round" class="steam"><path d="M12,-6 c-4,-6 4,-10 0,-16"/><path d="M22,-8 c-4,-6 4,-10 0,-16" style="animation-delay:.6s"/><path d="M31,-5 c-4,-6 4,-10 0,-16" style="animation-delay:1.2s"/></g></g></g><g transform="translate(1095 320) scale(1.15)"><g fill="#2ea043" stroke="#111318" stroke-width="3" stroke-linejoin="round"><ellipse cx="-22" cy="-62" rx="10" ry="20" transform="rotate(-35 -22 -62)"/><ellipse cx="22" cy="-64" rx="10" ry="20" transform="rotate(35 22 -64)"/><ellipse cx="0" cy="-74" rx="10" ry="24"/><ellipse cx="-8" cy="-52" rx="8" ry="14" transform="rotate(-15 -8 -52)" fill="#3fb950"/><ellipse cx="10" cy="-50" rx="8" ry="14" transform="rotate(20 10 -50)" fill="#3fb950"/></g><path d="M-30,-34 h60 l-7,34 h-46 Z" fill="#c8a27a" stroke="#111318" stroke-width="3.5" stroke-linejoin="round"/><rect x="-34" y="-42" width="68" height="12" rx="4" fill="#d9b58f" stroke="#111318" stroke-width="3.5"/></g></svg>